<mxfile host="app.diagrams.net" modified="2022-04-15T06:45:46.380Z" agent="5.0 (Macintosh; Intel Mac OS X 10_15_7) AppleWebKit/537.36 (KHTML, like Gecko) Chrome/100.0.4896.75 Safari/537.36" etag="RSaVFba2rYVdxp9nnb0-" version="17.4.0" type="github">
  <diagram id="jV8qdJLcL9cgi85XCKLg" name="第 1 页">
    <mxGraphModel dx="2893" dy="1035" grid="1" gridSize="10" guides="1" tooltips="1" connect="1" arrows="1" fold="1" page="1" pageScale="1" pageWidth="827" pageHeight="1169" math="0" shadow="0">
      <root>
        <mxCell id="0" />
        <mxCell id="1" parent="0" />
        <mxCell id="Qd4y_0YCe5aoA6LUHpw1-22" style="edgeStyle=orthogonalEdgeStyle;rounded=0;orthogonalLoop=1;jettySize=auto;html=1;exitX=1;exitY=0.5;exitDx=0;exitDy=0;entryX=0;entryY=0.5;entryDx=0;entryDy=0;" edge="1" parent="1" source="Qd4y_0YCe5aoA6LUHpw1-20" target="Qd4y_0YCe5aoA6LUHpw1-23">
          <mxGeometry relative="1" as="geometry">
            <mxPoint x="-190" y="480" as="targetPoint" />
          </mxGeometry>
        </mxCell>
        <mxCell id="Qd4y_0YCe5aoA6LUHpw1-25" style="edgeStyle=orthogonalEdgeStyle;rounded=0;orthogonalLoop=1;jettySize=auto;html=1;exitX=1;exitY=0.5;exitDx=0;exitDy=0;entryX=0;entryY=0.5;entryDx=0;entryDy=0;" edge="1" parent="1" source="Qd4y_0YCe5aoA6LUHpw1-20" target="Qd4y_0YCe5aoA6LUHpw1-24">
          <mxGeometry relative="1" as="geometry" />
        </mxCell>
        <mxCell id="Qd4y_0YCe5aoA6LUHpw1-40" style="edgeStyle=orthogonalEdgeStyle;rounded=0;orthogonalLoop=1;jettySize=auto;html=1;exitX=0.5;exitY=0;exitDx=0;exitDy=0;entryX=0;entryY=0.5;entryDx=0;entryDy=0;" edge="1" parent="1" source="Qd4y_0YCe5aoA6LUHpw1-20" target="Qd4y_0YCe5aoA6LUHpw1-39">
          <mxGeometry relative="1" as="geometry" />
        </mxCell>
        <mxCell id="Qd4y_0YCe5aoA6LUHpw1-20" value="诉求:增强免疫力" style="rounded=0;whiteSpace=wrap;html=1;" vertex="1" parent="1">
          <mxGeometry x="-450" y="440" width="120" height="60" as="geometry" />
        </mxCell>
        <mxCell id="Qd4y_0YCe5aoA6LUHpw1-27" style="edgeStyle=orthogonalEdgeStyle;rounded=0;orthogonalLoop=1;jettySize=auto;html=1;exitX=1;exitY=0.5;exitDx=0;exitDy=0;" edge="1" parent="1" source="Qd4y_0YCe5aoA6LUHpw1-21" target="Qd4y_0YCe5aoA6LUHpw1-26">
          <mxGeometry relative="1" as="geometry" />
        </mxCell>
        <mxCell id="Qd4y_0YCe5aoA6LUHpw1-21" value="诉求:皮肤健康" style="rounded=0;whiteSpace=wrap;html=1;" vertex="1" parent="1">
          <mxGeometry x="-450" y="620" width="120" height="60" as="geometry" />
        </mxCell>
        <mxCell id="Qd4y_0YCe5aoA6LUHpw1-35" style="edgeStyle=orthogonalEdgeStyle;rounded=0;orthogonalLoop=1;jettySize=auto;html=1;exitX=1;exitY=0.5;exitDx=0;exitDy=0;entryX=0;entryY=0.5;entryDx=0;entryDy=0;" edge="1" parent="1" source="Qd4y_0YCe5aoA6LUHpw1-23" target="Qd4y_0YCe5aoA6LUHpw1-30">
          <mxGeometry relative="1" as="geometry" />
        </mxCell>
        <mxCell id="Qd4y_0YCe5aoA6LUHpw1-23" value="推荐商品：艾兰得1" style="rounded=0;whiteSpace=wrap;html=1;" vertex="1" parent="1">
          <mxGeometry x="-170" y="400" width="120" height="60" as="geometry" />
        </mxCell>
        <mxCell id="Qd4y_0YCe5aoA6LUHpw1-36" style="edgeStyle=orthogonalEdgeStyle;rounded=0;orthogonalLoop=1;jettySize=auto;html=1;exitX=1;exitY=0.5;exitDx=0;exitDy=0;entryX=0;entryY=0.5;entryDx=0;entryDy=0;" edge="1" parent="1" source="Qd4y_0YCe5aoA6LUHpw1-24" target="Qd4y_0YCe5aoA6LUHpw1-33">
          <mxGeometry relative="1" as="geometry" />
        </mxCell>
        <mxCell id="Qd4y_0YCe5aoA6LUHpw1-24" value="推荐商品：艾兰得2" style="rounded=0;whiteSpace=wrap;html=1;" vertex="1" parent="1">
          <mxGeometry x="-170" y="480" width="120" height="60" as="geometry" />
        </mxCell>
        <mxCell id="Qd4y_0YCe5aoA6LUHpw1-43" style="edgeStyle=orthogonalEdgeStyle;rounded=0;orthogonalLoop=1;jettySize=auto;html=1;exitX=1;exitY=0.5;exitDx=0;exitDy=0;entryX=0;entryY=0.5;entryDx=0;entryDy=0;" edge="1" parent="1" source="Qd4y_0YCe5aoA6LUHpw1-26" target="Qd4y_0YCe5aoA6LUHpw1-42">
          <mxGeometry relative="1" as="geometry" />
        </mxCell>
        <mxCell id="Qd4y_0YCe5aoA6LUHpw1-44" style="edgeStyle=orthogonalEdgeStyle;rounded=0;orthogonalLoop=1;jettySize=auto;html=1;exitX=1;exitY=0.5;exitDx=0;exitDy=0;entryX=0.5;entryY=1;entryDx=0;entryDy=0;" edge="1" parent="1" source="Qd4y_0YCe5aoA6LUHpw1-26" target="Qd4y_0YCe5aoA6LUHpw1-33">
          <mxGeometry relative="1" as="geometry">
            <Array as="points">
              <mxPoint x="30" y="650" />
              <mxPoint x="30" y="570" />
              <mxPoint x="166" y="570" />
            </Array>
          </mxGeometry>
        </mxCell>
        <mxCell id="Qd4y_0YCe5aoA6LUHpw1-26" value="推荐商品：艾兰得3" style="rounded=0;whiteSpace=wrap;html=1;" vertex="1" parent="1">
          <mxGeometry x="-170" y="620" width="120" height="60" as="geometry" />
        </mxCell>
        <mxCell id="Qd4y_0YCe5aoA6LUHpw1-29" value="" style="edgeStyle=orthogonalEdgeStyle;rounded=0;orthogonalLoop=1;jettySize=auto;html=1;" edge="1" parent="1" source="Qd4y_0YCe5aoA6LUHpw1-30" target="Qd4y_0YCe5aoA6LUHpw1-31">
          <mxGeometry relative="1" as="geometry" />
        </mxCell>
        <mxCell id="Qd4y_0YCe5aoA6LUHpw1-30" value="成分1：维生素C" style="rounded=0;whiteSpace=wrap;html=1;" vertex="1" parent="1">
          <mxGeometry x="106" y="400" width="120" height="60" as="geometry" />
        </mxCell>
        <mxCell id="Qd4y_0YCe5aoA6LUHpw1-41" style="edgeStyle=orthogonalEdgeStyle;rounded=0;orthogonalLoop=1;jettySize=auto;html=1;exitX=1;exitY=0.5;exitDx=0;exitDy=0;entryX=0.5;entryY=1;entryDx=0;entryDy=0;" edge="1" parent="1" source="Qd4y_0YCe5aoA6LUHpw1-31" target="Qd4y_0YCe5aoA6LUHpw1-39">
          <mxGeometry relative="1" as="geometry" />
        </mxCell>
        <mxCell id="Qd4y_0YCe5aoA6LUHpw1-31" value="成分作用：可以增强免疫力" style="whiteSpace=wrap;html=1;rounded=0;" vertex="1" parent="1">
          <mxGeometry x="306" y="400" width="120" height="60" as="geometry" />
        </mxCell>
        <mxCell id="Qd4y_0YCe5aoA6LUHpw1-32" style="edgeStyle=orthogonalEdgeStyle;rounded=0;orthogonalLoop=1;jettySize=auto;html=1;exitX=1;exitY=0.5;exitDx=0;exitDy=0;entryX=0;entryY=0.5;entryDx=0;entryDy=0;" edge="1" parent="1" source="Qd4y_0YCe5aoA6LUHpw1-33" target="Qd4y_0YCe5aoA6LUHpw1-34">
          <mxGeometry relative="1" as="geometry" />
        </mxCell>
        <mxCell id="Qd4y_0YCe5aoA6LUHpw1-33" value="成分2：维生素B" style="rounded=0;whiteSpace=wrap;html=1;" vertex="1" parent="1">
          <mxGeometry x="106" y="480" width="120" height="60" as="geometry" />
        </mxCell>
        <mxCell id="Qd4y_0YCe5aoA6LUHpw1-34" value="成分作用：可以呵护眼睛" style="whiteSpace=wrap;html=1;rounded=0;" vertex="1" parent="1">
          <mxGeometry x="306" y="480" width="120" height="60" as="geometry" />
        </mxCell>
        <mxCell id="Qd4y_0YCe5aoA6LUHpw1-39" value="推荐理由：根据增强免疫力的需求，推荐维生素c营养素" style="rounded=0;whiteSpace=wrap;html=1;" vertex="1" parent="1">
          <mxGeometry x="580" y="280" width="120" height="60" as="geometry" />
        </mxCell>
        <mxCell id="Qd4y_0YCe5aoA6LUHpw1-42" value="成分3：维生素A" style="rounded=0;whiteSpace=wrap;html=1;" vertex="1" parent="1">
          <mxGeometry x="106" y="620" width="120" height="60" as="geometry" />
        </mxCell>
      </root>
    </mxGraphModel>
  </diagram>
</mxfile>
